<?xml version="1.0" standalone="no"?>
<!DOCTYPE svg PUBLIC "-//W3C//DTD SVG 20010904//EN"
 "http://www.w3.org/TR/2001/REC-SVG-20010904/DTD/svg10.dtd">
<svg version="1.0" xmlns="http://www.w3.org/2000/svg"
 width="300.000000pt" height="420.000000pt" viewBox="0 0 300.000000 420.000000"
 preserveAspectRatio="xMidYMid meet">

<g transform="translate(0.000000,420.000000) scale(0.100000,-0.100000)"
fill="#000000" stroke="none">
<path d="M32 4193 l-32 -4 0 -2095 0 -2094 1500 0 1500 0 0 2100 0 2100 -1467
-2 c-808 0 -1483 -3 -1501 -5z m1698 -360 c114 -19 191 -46 275 -95 212 -124
392 -272 460 -378 71 -110 144 -257 183 -369 l37 -106 -1 -210 c-1 -207 -2
-212 -36 -340 -63 -230 -83 -273 -184 -395 -136 -163 -269 -268 -441 -348
-102 -47 -201 -71 -213 -52 -8 13 -23 207 -25 314 -1 83 9 97 81 120 29 9 60
26 69 36 10 11 24 20 30 20 22 0 176 167 233 252 65 99 93 185 101 313 8 126
-10 250 -49 333 -18 37 -38 86 -45 109 -25 83 -121 194 -230 270 -56 38 -181
102 -242 122 -33 11 -114 27 -179 36 -134 17 -164 14 -324 -37 -173 -56 -204
-75 -383 -245 -79 -75 -159 -254 -176 -398 -20 -168 -21 -209 -6 -289 20 -101
38 -141 123 -267 106 -158 171 -218 311 -289 90 -46 90 -46 60 -303 -16 -138
-17 -139 -147 -98 -142 44 -257 124 -420 291 -96 98 -119 132 -196 291 -78
163 -105 237 -111 298 -2 25 -9 80 -14 121 -13 96 -14 242 -1 351 9 81 19 116
56 196 8 17 14 38 14 45 0 15 11 41 53 127 19 38 128 164 196 227 26 23 51 48
87 85 89 93 329 214 514 259 96 24 411 26 540 3z m-131 -545 c28 -29 35 -71
35 -208 1 -166 -27 -226 -111 -237 -70 -9 -83 22 -104 263 l-13 141 25 26 c27
28 45 34 106 36 31 1 47 -5 62 -21z m-335 -53 c25 -25 34 -80 40 -254 6 -145
5 -166 -10 -182 -33 -37 -116 -12 -129 38 -19 72 -30 167 -30 262 l0 105 34
23 c39 27 73 29 95 8z m592 -45 c18 -12 48 -44 66 -73 31 -48 33 -58 33 -137
0 -68 -5 -91 -20 -115 -35 -52 -56 -64 -113 -65 -51 0 -54 2 -66 33 -19 45
-10 342 11 363 20 20 50 18 89 -6z m-822 -134 c19 -25 21 -41 21 -191 0 -191
-4 -201 -63 -170 -49 27 -83 108 -84 203 0 76 16 124 57 165 33 32 41 31 69
-7z m743 -348 c192 3 218 -3 253 -60 41 -67 34 -277 -11 -324 -13 -14 -66 -52
-118 -86 -115 -74 -208 -166 -215 -211 -17 -110 -26 -677 -12 -733 4 -13 14
-27 24 -32 15 -8 144 -1 212 11 14 3 59 8 101 12 100 9 108 1 91 -96 -16 -91
-15 -142 3 -209 34 -126 19 -148 -87 -131 -39 6 -112 14 -162 17 -125 7 -155
-8 -175 -88 -13 -51 -13 -69 3 -167 18 -113 15 -171 -10 -192 -14 -12 -48 -9
-124 11 -25 6 -67 9 -95 6 -27 -4 -72 -9 -98 -12 -50 -6 -102 8 -110 30 -3 7
-2 77 2 157 8 165 0 223 -35 245 -37 25 -129 28 -224 9 -104 -22 -136 -21
-161 1 -26 24 -24 41 18 136 l36 83 -16 81 c-24 115 -22 140 9 161 22 14 30
15 58 4 111 -45 139 -53 206 -62 146 -17 140 -33 142 431 1 354 1 371 -18 388
-10 9 -46 40 -78 67 -103 87 -176 207 -184 299 -6 81 7 92 115 88 142 -4 243
-35 343 -104 93 -65 85 -64 200 -23 41 15 93 29 115 30 22 1 43 3 47 4 3 0 9
19 13 41 11 67 2 72 -139 64 -143 -7 -167 -1 -196 55 -23 46 -25 64 -9 93 10
18 16 20 62 12 29 -4 129 -7 224 -6z"/>
</g>
</svg>
