<?xml version="1.0" standalone="no"?>
<!DOCTYPE svg PUBLIC "-//W3C//DTD SVG 20010904//EN"
 "http://www.w3.org/TR/2001/REC-SVG-20010904/DTD/svg10.dtd">
<svg version="1.0" xmlns="http://www.w3.org/2000/svg"
 width="510.000000pt" height="664.000000pt" viewBox="0 0 510.000000 664.000000"
 preserveAspectRatio="xMidYMid meet">

<g transform="translate(0.000000,664.000000) scale(0.100000,-0.100000)"
fill="#000000" stroke="none">
<path d="M2611 6195 c-24 -8 -47 -17 -50 -22 -3 -5 -23 -17 -44 -28 -63 -32
-143 -118 -161 -171 -9 -26 -16 -55 -16 -65 0 -10 -5 -19 -10 -21 -7 -2 -12
-251 -16 -718 -3 -393 -7 -725 -10 -737 -2 -13 -10 -23 -17 -23 -6 0 -23 -17
-37 -38 -33 -50 -36 -51 -84 -40 -113 27 -348 -17 -393 -72 -10 -12 -13 59
-13 340 -2 437 -12 719 -27 728 -5 4 -14 17 -17 30 -4 12 -19 35 -33 50 -14
15 -33 36 -42 47 -22 26 -42 39 -121 77 -61 30 -72 32 -175 33 -91 0 -120 -4
-169 -23 -82 -32 -161 -87 -188 -130 -12 -20 -25 -39 -28 -42 -14 -10 -30 -75
-30 -116 0 -25 -5 -44 -12 -46 -10 -4 -13 -367 -13 -1704 0 -1606 1 -1701 17
-1718 10 -10 18 -21 18 -26 0 -5 6 -15 13 -22 7 -7 25 -37 40 -65 26 -51 45
-77 78 -112 8 -9 25 -30 37 -48 13 -17 38 -48 57 -68 19 -19 35 -39 35 -43 0
-4 22 -31 50 -60 27 -29 62 -74 77 -100 15 -26 33 -53 40 -60 7 -7 16 -24 19
-38 3 -13 10 -24 14 -24 5 0 16 -30 26 -67 14 -56 18 -129 21 -403 l5 -335 33
-32 c56 -55 144 -42 171 23 23 55 16 705 -9 779 -9 27 -15 50 -14 51 1 2 36
-8 77 -22 90 -29 223 -54 294 -54 55 0 209 25 229 36 55 34 77 60 77 96 0 41
-14 59 -59 78 -26 10 -39 10 -81 -4 -80 -26 -156 -30 -259 -11 -118 20 -164
36 -280 93 -126 63 -131 66 -131 74 0 3 -34 34 -76 67 -41 34 -88 76 -102 93
-15 18 -41 47 -59 65 -17 18 -41 54 -54 80 -13 27 -29 54 -35 61 -7 6 -16 21
-19 32 -3 11 -10 20 -15 20 -5 0 -21 39 -37 88 -15 48 -31 88 -35 90 -4 2 -12
37 -19 78 -6 41 -15 74 -19 74 -4 0 -13 51 -20 113 -9 85 -9 180 -1 397 6 156
15 287 20 290 9 6 31 200 31 272 0 25 4 48 9 50 5 2 14 134 20 293 20 508 41
1245 41 1398 0 91 4 147 10 147 6 0 10 28 10 64 0 36 4 77 10 91 12 30 61 74
103 93 72 30 175 4 233 -61 l29 -32 3 -491 3 -490 -100 0 c-64 0 -108 -4 -124
-13 -52 -28 -64 -116 -22 -155 22 -20 40 -24 135 -31 l110 -7 2 -129 c1 -71 3
-159 3 -195 l0 -66 -92 -37 c-109 -44 -160 -77 -168 -109 -8 -33 1 -53 37 -82
26 -20 41 -24 99 -24 57 1 80 7 142 38 40 20 79 36 85 36 9 0 12 -58 12 -219
l0 -220 -180 -3 -180 -3 -25 -27 c-38 -41 -42 -80 -13 -108 38 -36 60 -40 233
-36 l165 3 0 -63 c0 -69 17 -164 30 -164 4 0 13 -14 20 -31 16 -37 96 -120
149 -153 124 -79 355 -90 485 -24 47 24 101 20 144 -10 15 -12 40 -24 54 -27
60 -15 68 -58 22 -112 -11 -12 -26 -30 -35 -41 -17 -20 -69 -142 -69 -161 0
-6 -4 -11 -9 -11 -21 0 -41 -153 -25 -194 3 -9 21 -25 40 -37 27 -16 43 -19
74 -14 45 8 66 31 76 83 4 18 10 32 13 32 4 0 13 23 20 50 7 28 16 50 21 50 4
0 15 19 24 43 14 38 36 70 80 119 8 9 27 35 42 58 15 22 31 40 35 40 5 0 9 5
9 12 0 6 26 35 58 65 31 30 75 72 97 93 122 118 372 269 535 325 85 29 110 31
110 9 0 -8 13 -29 29 -45 23 -23 38 -29 72 -29 75 0 107 18 136 78 l26 53 -6
192 c-4 106 -8 201 -10 212 -1 15 5 21 23 23 60 6 167 36 191 53 81 57 47 179
-50 179 -33 0 -44 -5 -63 -30 -12 -16 -31 -30 -42 -30 -41 0 -236 98 -286 144
-14 12 -39 33 -57 45 -17 12 -42 38 -54 59 -13 20 -28 42 -34 49 -5 7 -15 19
-22 26 -18 23 -33 87 -33 148 0 56 16 119 30 119 4 0 28 19 54 41 l47 42 45
-23 c24 -13 49 -29 55 -37 6 -7 18 -13 26 -13 8 0 35 -16 60 -35 25 -19 50
-35 56 -35 5 0 31 -16 57 -35 26 -19 52 -35 57 -35 6 0 31 -16 56 -35 25 -19
52 -35 60 -35 8 0 31 -13 52 -30 21 -16 43 -30 50 -30 7 0 33 -16 58 -35 25
-19 51 -35 58 -35 7 0 28 -12 48 -27 19 -16 44 -30 56 -33 29 -8 73 -87 86
-155 14 -76 6 -791 -11 -885 -24 -143 -62 -280 -76 -280 -8 0 -14 -7 -14 -16
0 -28 -82 -224 -94 -224 -6 0 -31 -38 -54 -85 -23 -47 -48 -85 -54 -85 -7 0
-33 -34 -57 -75 -25 -41 -50 -75 -56 -75 -6 0 -30 -27 -54 -60 -24 -33 -49
-60 -56 -60 -6 0 -31 -23 -54 -50 -23 -28 -47 -50 -53 -50 -6 0 -32 -22 -58
-50 -26 -27 -53 -50 -61 -50 -8 0 -38 -23 -67 -50 -29 -28 -55 -50 -58 -50 -3
0 -20 -11 -37 -24 -18 -13 -43 -27 -57 -31 -14 -4 -36 -14 -48 -22 -27 -17
-111 -47 -192 -70 -50 -13 -127 -16 -289 -10 -34 1 -47 -3 -62 -22 -24 -30
-24 -72 1 -103 59 -76 346 -80 535 -8 15 6 30 9 32 6 3 -2 -3 -35 -12 -73 -14
-59 -16 -117 -13 -409 3 -377 1 -365 69 -386 45 -13 107 1 130 29 11 12 15 90
20 357 5 327 17 456 40 456 5 0 9 9 9 20 0 11 5 20 10 20 6 0 10 6 10 14 0 21
73 139 90 144 16 4 100 116 100 132 0 6 6 10 14 10 8 0 33 23 56 50 23 28 48
50 55 50 7 0 32 25 55 55 23 30 49 55 56 55 8 0 18 10 23 22 14 36 70 108 84
108 6 0 32 34 57 75 25 41 50 75 55 75 12 0 95 161 95 184 0 9 6 16 14 16 15
0 54 83 82 173 10 31 23 57 29 57 11 0 41 111 71 265 21 104 32 822 15 948
-12 86 -51 184 -78 194 -9 4 -35 26 -59 50 -24 23 -48 43 -54 43 -6 0 -32 16
-57 35 -25 19 -50 35 -56 35 -5 0 -31 16 -57 35 -26 19 -52 35 -57 35 -6 0
-31 16 -56 35 -25 19 -52 35 -59 35 -7 0 -31 14 -52 30 -22 17 -45 30 -51 30
-7 0 -33 16 -58 35 -25 19 -51 35 -57 35 -7 0 -30 14 -51 31 l-39 31 0 94 c0
77 -3 94 -15 94 -12 0 -15 20 -15 118 1 234 -21 1009 -30 1083 -9 72 -44 169
-62 169 -4 0 -21 15 -38 34 -41 44 -144 93 -228 108 -81 14 -172 2 -245 -31
-56 -26 -67 -26 -67 -3 0 11 -14 45 -30 78 -23 44 -45 69 -88 100 -31 23 -67
45 -79 48 -13 4 -23 11 -23 16 0 34 -241 53 -329 25z m249 -197 c32 -16 51
-35 65 -63 11 -22 23 -42 27 -45 3 -3 8 -304 10 -668 3 -659 3 -663 -17 -658
-120 32 -166 38 -265 32 -58 -3 -116 -8 -129 -12 l-24 -7 8 659 c4 370 11 660
16 662 5 2 9 8 9 14 0 23 46 72 84 89 60 27 159 25 216 -3z m645 -244 c22 -12
49 -36 60 -55 19 -32 20 -61 29 -539 5 -296 13 -508 18 -511 18 -11 -23 -19
-99 -19 -84 0 -130 -19 -139 -57 -17 -68 43 -113 151 -113 78 0 95 -12 95 -68
l0 -39 -54 -12 c-60 -13 -156 -58 -156 -72 0 -5 -7 -9 -14 -9 -8 0 -27 -17
-43 -37 -15 -21 -34 -46 -43 -55 -34 -38 -40 -48 -51 -92 -12 -47 -8 -206 6
-238 6 -16 1 -18 -34 -18 l-41 0 0 925 c0 525 4 925 9 925 5 0 14 14 21 31 33
79 181 107 285 53z m-651 -1364 c34 -18 55 -37 70 -65 11 -22 26 -43 31 -47 6
-5 11 -199 13 -538 l3 -530 -103 -1 c-134 -1 -149 -6 -171 -53 -17 -35 -17
-43 -5 -75 19 -51 47 -61 165 -61 l101 0 7 -65 c10 -88 2 -208 -13 -213 -7 -2
-12 -8 -12 -14 0 -5 -11 -24 -24 -41 -32 -42 -115 -72 -183 -65 -58 6 -139 41
-153 67 -5 11 -18 27 -27 37 -17 16 -18 65 -23 671 -3 431 -9 656 -15 661 -6
4 -19 26 -30 50 -10 24 -31 56 -47 71 -26 26 -27 30 -16 62 6 18 15 38 20 44
4 5 19 24 33 41 21 27 81 63 145 88 8 3 53 4 100 3 68 -2 95 -7 134 -27z
m-677 -259 c47 -21 103 -80 103 -110 0 -5 6 -11 13 -14 9 -3 12 -138 12 -632
0 -494 -3 -629 -12 -633 -7 -2 -13 -9 -13 -16 0 -24 -43 -68 -84 -87 -50 -22
-131 -24 -179 -4 -20 8 -57 35 -84 60 l-48 46 -5 544 c-6 613 -1 579 -81 580
l-41 0 4 76 c2 65 7 80 28 103 46 49 121 94 185 110 44 11 151 -2 202 -23z
m1283 -554 c15 -18 41 -39 57 -47 15 -8 39 -22 53 -31 14 -9 37 -19 52 -23 21
-5 28 -14 32 -39 10 -58 27 -230 23 -233 -2 -2 -30 5 -63 17 -82 29 -183 48
-289 55 -151 9 -135 -12 -135 181 l0 166 121 -7 c120 -7 120 -7 149 -39z"/>
<path d="M928 964 c-26 -14 -28 -19 -28 -85 0 -67 1 -70 28 -80 102 -40 201
28 172 117 -19 57 -109 83 -172 48z"/>
<path d="M2509 957 l-34 -23 -3 -313 c-3 -350 -2 -354 62 -366 47 -9 87 1 119
31 l28 26 -3 301 c-3 287 -4 303 -23 322 -24 24 -69 45 -94 45 -10 0 -33 -10
-52 -23z"/>
<path d="M4088 967 c-7 -7 -21 -16 -30 -20 -22 -8 -33 -70 -19 -105 14 -33 58
-52 117 -52 47 0 77 19 94 59 15 37 -1 93 -33 116 -26 18 -111 20 -129 2z"/>
</g>
</svg>
